<svg xmlns="http://www.w3.org/2000/svg" version="1.1" xmlns:xlink="http://www.w3.org/1999/xlink" xmlns:svgjs="http://svgjs.dev/svgjs" width="1000" height="1000" viewBox="0 0 1000 1000"><rect width="1000" height="1000" fill="#010536"></rect><g transform="matrix(0.7,0,0,0.7,150.00216747069214,106.25)"><svg viewBox="0 0 320 360" data-background-color="#010536" preserveAspectRatio="xMidYMid meet" height="1125" width="1000" xmlns="http://www.w3.org/2000/svg" xmlns:xlink="http://www.w3.org/1999/xlink"><g id="tight-bounds" transform="matrix(1,0,0,1,-0.0005350351612491977,0)"><svg viewBox="0 0 320 360" height="360" width="320"><rect width="320.00152587890625" height="360" fill="url(#3448ff22-bbbe-4acd-9b81-a5c1ced37da0)" mask="url(&quot;#cd8360e4-ee9d-467d-ba69-e5d826e11e16&quot;)" data-fill-palette-color="tertiary"></rect><rect width="320.0010986328125" height="360" fill="url(#cdaba0b5-1440-45c8-8861-07a384464494)" mask="url(&quot;#04185945-3033-4983-9710-732ade492071&quot;)" data-fill-palette-color="accent"></rect><rect width="320.00067138671875" height="360" fill="url(#adca4f5d-7ab9-4746-a271-dbf5ca7d0cbf)" mask="url(&quot;#50649c9a-f256-4fb6-b88e-acffd1ec08d4&quot;)" data-fill-palette-color="primary"></rect><g><svg></svg></g><g><svg viewBox="0 0 320 360" height="360" width="320"><g><path xmlns="http://www.w3.org/2000/svg" d="M307.925 179.999l6.575-11.387c11.322-19.607 4.604-44.679-15.003-56.001l-11.387-6.575v-13.151c0-22.639-18.354-40.994-40.994-40.994h-13.151l-6.575-11.387c-11.322-19.607-36.393-26.325-56.001-15.003l-11.39 6.572-11.387-6.576c-19.607-11.318-44.679-4.6-56.001 15.007l-6.575 11.387h-13.151c-22.639 0-40.994 18.354-40.994 40.994v13.151l-11.387 6.575c-19.607 11.322-26.325 36.393-15.003 56.001l6.572 11.387-6.576 11.387c-11.318 19.607-4.6 44.679 15.007 56l11.387 6.576v13.15c0 22.639 18.354 40.994 40.994 40.994h13.151l6.575 11.387c11.322 19.607 36.393 26.325 56.001 15.003l11.387-6.571 11.387 6.575c19.607 11.322 44.679 4.604 56-15.003l6.576-11.387h13.15c22.639 0 40.994-18.354 40.994-40.994v-13.151l11.387-6.575c19.607-11.322 26.325-36.393 15.003-56.001zM297.702 115.716c8.655 4.996 14.842 13.062 17.428 22.713 2.586 9.65 1.261 19.734-3.735 28.384l-5.538 9.596-17.747-30.74v-35.494zM251.155 271.155l-57.791 33.365h-66.731l-57.791-33.365-33.365-57.791v-66.731l33.365-57.791 57.791-33.365h66.731l57.791 33.365 33.365 57.791v66.731zM284.517 220.539v31.351l-27.151 15.676zM247.566 277.366l-15.676 27.151h-31.351zM187.15 308.106l-27.151 15.676-27.151-15.676zM119.459 304.517h-31.352l-15.676-27.151zM62.632 267.566l-27.151-15.676v-31.351zM31.891 207.15l-15.675-27.151 15.675-27.151zM35.481 139.459v-31.352l27.151-15.676zM72.431 82.632l15.676-27.151h31.352zM132.848 51.891l27.151-15.675 27.151 15.675zM200.539 55.481h31.351l15.676 27.151zM257.366 92.431l27.151 15.676v31.352zM288.106 152.848l15.676 27.151-15.676 27.151zM247.112 55.481c9.992 0 19.384 3.889 26.452 10.956 7.063 7.063 10.956 16.46 10.957 26.452v11.079l-30.741-17.747-17.747-30.74zM173.18 28.606c8.655-4.996 18.735-6.322 28.385-3.735 9.65 2.586 17.716 8.777 22.712 17.428l5.538 9.596h-35.494l-30.741-17.747zM95.716 42.295c4.996-8.655 13.062-14.842 22.713-17.428 9.65-2.586 19.734-1.261 28.384 3.736l9.596 5.537-30.74 17.747h-35.494zM35.481 92.885c0-9.992 3.889-19.384 10.956-26.452 7.063-7.063 16.46-10.956 26.452-10.956h11.079l-17.747 30.74-30.74 17.747zM8.606 166.817c-4.996-8.655-6.322-18.735-3.735-28.385 2.586-9.65 8.777-17.716 17.428-22.712l9.596-5.538v35.495l-17.747 30.74zM22.295 244.281c-8.655-4.996-14.842-13.062-17.428-22.712-2.586-9.65-1.261-19.734 3.736-28.385l5.537-9.596 17.747 30.74v35.495zM72.885 304.517c-9.992 0-19.384-3.889-26.452-10.957-7.063-7.063-10.956-16.46-10.956-26.451v-11.08l30.74 17.747 17.747 30.741zM146.817 331.391c-8.655 4.996-18.735 6.322-28.385 3.735-9.65-2.586-17.716-8.777-22.712-17.428l-5.538-9.596h35.495l30.74 17.747zM224.281 317.702c-4.996 8.655-13.062 14.842-22.712 17.428-9.65 2.586-19.734 1.261-28.385-3.735l-9.596-5.538 30.74-17.747h35.495zM284.517 267.112c0 9.992-3.889 19.384-10.957 26.452-7.063 7.063-16.46 10.956-26.451 10.957h-11.08l17.747-30.741 30.741-17.747zM315.13 221.565c-2.586 9.65-8.777 17.716-17.428 22.712l-9.596 5.538v-35.494l17.747-30.741 5.538 9.596c4.996 8.658 6.326 18.739 3.739 28.389z" fill="url(#3448ff22-bbbe-4acd-9b81-a5c1ced37da0)" fill-rule="nonzero" stroke="none" stroke-width="1" stroke-linecap="butt" stroke-linejoin="miter" stroke-miterlimit="10" stroke-dasharray="" stroke-dashoffset="0" font-family="none" font-weight="none" font-size="none" text-anchor="none" style="mix-blend-mode: normal" data-fill-palette-color="tertiary"></path></g><g transform="matrix(1,0,0,1,64,142.83932817792987)"><svg viewBox="0 0 192 74.32134364414028" height="74.32134364414028" width="192"><g><svg viewBox="0 0 192 74.32134364414028" height="74.32134364414028" width="192"><g><svg viewBox="0 0 192 74.32134364414028" height="74.32134364414028" width="192"><g><svg viewBox="0 0 192 18.579982891360135" height="18.579982891360135" width="192"><g id="textblocktransform"><svg viewBox="0 0 192 18.579982891360135" height="18.579982891360135" width="192" id="textblock"><g><svg viewBox="0 0 192 18.579982891360135" height="18.579982891360135" width="192"><g transform="matrix(1,0,0,1,0,0)"><svg width="192" viewBox="1.25 -36.150001525878906 467.55999755859375 45.25" height="18.579982891360135" data-palette-color="url(#adca4f5d-7ab9-4746-a271-dbf5ca7d0cbf)"></svg></g></svg></g></svg></g></svg></g><g transform="matrix(1,0,0,1,70.3230469304402,22.96627093242087)"><svg viewBox="0 0 51.353906139119616 51.355072711719416" height="51.355072711719416" width="51.353906139119616"><g><svg xmlns="http://www.w3.org/2000/svg" xmlns:xlink="http://www.w3.org/1999/xlink" version="1.1" x="0" y="0" viewBox="6.5430006980896 7.459991455078125 87.99400329589844 87.99600219726562" enable-background="new 0 0 100 100" xml:space="preserve" height="51.355072711719416" width="51.353906139119616" class="icon-icon-0" data-fill-palette-color="accent" id="icon-0"></svg></g></svg></g><g></g></svg></g></svg></g></svg></g></svg></g><defs></defs><mask id="50649c9a-f256-4fb6-b88e-acffd1ec08d4"><g id="SvgjsG1920"><svg viewBox="0 0 320 360" height="360" width="320"><g><svg></svg></g><g><svg viewBox="0 0 320 360" height="360" width="320"><g></g><g transform="matrix(1,0,0,1,64,142.83932817792987)"><svg viewBox="0 0 192 74.32134364414028" height="74.32134364414028" width="192"><g><svg viewBox="0 0 192 74.32134364414028" height="74.32134364414028" width="192"><g><svg viewBox="0 0 192 74.32134364414028" height="74.32134364414028" width="192"><g><svg viewBox="0 0 192 18.579982891360135" height="18.579982891360135" width="192"><g id="SvgjsG1919"><svg viewBox="0 0 192 18.579982891360135" height="18.579982891360135" width="192" id="SvgjsSvg1918"><g><svg viewBox="0 0 192 18.579982891360135" height="18.579982891360135" width="192"><g transform="matrix(1,0,0,1,0,0)"><svg width="192" viewBox="1.25 -36.150001525878906 467.55999755859375 45.25" height="18.579982891360135" data-palette-color="url(#adca4f5d-7ab9-4746-a271-dbf5ca7d0cbf)"><path d="M13.05 0.6Q7.35 0.6 4.3-2 1.25-4.6 1.25-9.65L1.25-9.65 1.25-11.8 8.45-11.8 8.45-9.75Q8.45-7.7 9.63-6.6 10.8-5.5 13.05-5.5L13.05-5.5Q15.25-5.5 16.35-6.6 17.45-7.7 17.45-9.75L17.45-9.75 17.45-34.3 24.75-34.3 24.75-9.65Q24.75-4.6 21.75-2 18.75 0.6 13.05 0.6L13.05 0.6ZM42.2 0.6Q35.85 0.6 32.72-2.75 29.6-6.1 29.6-13.15L29.6-13.15Q29.6-20.2 32.72-23.55 35.85-26.9 42.2-26.9L42.2-26.9Q48.05-26.9 50.95-23.53 53.85-20.15 53.85-13.15L53.85-13.15 53.85-11.55 36.55-11.55Q36.65-8.05 37.95-6.38 39.25-4.7 42.3-4.7L42.3-4.7Q44.45-4.7 45.77-5.9 47.1-7.1 47.1-9.3L47.1-9.3 53.85-9.3Q53.85-4.35 50.65-1.88 47.45 0.6 42.2 0.6L42.2 0.6ZM36.65-16.1L46.75-16.1Q46.75-21.55 42.2-21.55L42.2-21.55Q39.6-21.55 38.27-20.2 36.95-18.85 36.65-16.1L36.65-16.1ZM59.14 0L59.14-26.3 65-26.3 65.5-22.85 65.84-22.85Q69.05-26.9 74.05-26.9L74.05-26.9Q78.09-26.9 80.42-24.7 82.75-22.5 82.75-17.65L82.75-17.65 82.75 0 75.89 0 75.89-16.2Q75.89-18.65 74.75-19.75 73.59-20.85 71.34-20.85L71.34-20.85Q69.05-20.85 67.52-19.23 66-17.6 66-15.2L66-15.2 66 0 59.14 0ZM95.74 0.6Q92.69 0.6 90.14-1 87.59-2.6 87.59-6.8L87.59-6.8Q87.59-11.85 91.74-13.98 95.89-16.1 103.49-16.1L103.49-16.1 103.49-17.95Q103.49-19.7 102.72-20.65 101.94-21.6 99.79-21.6L99.79-21.6Q97.49-21.6 96.52-20.9 95.54-20.2 95.54-19.25L95.54-19.25 95.54-18.5 88.94-18.5Q88.89-18.8 88.89-19.6L88.89-19.6Q88.89-22.9 91.82-24.9 94.74-26.9 99.59-26.9L99.59-26.9Q104.99-26.9 107.67-24.7 110.34-22.5 110.34-18.35L110.34-18.35 110.34-6.75Q110.34-5.85 110.84-5.43 111.34-5 112.09-5L112.09-5 113.49-5 113.49-0.2Q111.89 0.6 109.54 0.6L109.54 0.6Q107.49 0.6 106.12-0.3 104.74-1.2 104.24-2.85L104.24-2.85 103.94-2.85Q102.49-1.15 100.62-0.28 98.74 0.6 95.74 0.6L95.74 0.6ZM97.89-4.8Q100.79-4.8 102.14-6.43 103.49-8.05 103.49-10.75L103.49-10.75 103.49-11.55Q94.54-11.55 94.54-7.55L94.54-7.55Q94.54-6.3 95.37-5.55 96.19-4.8 97.89-4.8L97.89-4.8ZM121.69 9.1Q118.94 9.1 117.04 7.4 115.14 5.7 115.14 3.05L115.14 3.05Q115.14-0.45 119.19-2.3L119.19-2.3Q116.64-3.6 116.64-6.25L116.64-6.25Q116.64-7.9 117.94-9.13 119.24-10.35 121.29-10.85L121.29-10.85Q117.44-13.2 117.44-17.95L117.44-17.95Q117.44-22.1 120.47-24.5 123.49-26.9 129.09-26.9L129.09-26.9Q132.14-26.9 134.39-26.15L134.39-26.15Q135.89-27.1 136.56-28.43 137.24-29.75 137.24-30.7L137.24-30.7 143.94-30.7Q143.94-27.95 142.47-26.28 140.99-24.6 138.29-24L138.29-24Q140.79-21.65 140.79-17.95L140.79-17.95Q140.79-13.8 137.87-11.4 134.94-9 129.49-9L129.49-9 125.49-9Q124.59-9 124.06-8.6 123.54-8.2 123.54-7.5L123.54-7.5Q123.54-6.9 123.99-6.48 124.44-6.05 125.19-6.05L125.19-6.05 137.14-6.05Q140.04-6.05 141.99-4.1 143.94-2.15 143.94 1L143.94 1Q143.94 3.4 142.64 5.25 141.34 7.1 139.09 8.1 136.84 9.1 134.14 9.1L134.14 9.1 121.69 9.1ZM129.09-13.65Q131.49-13.65 132.74-14.78 133.99-15.9 133.99-17.95L133.99-17.95Q133.99-20 132.74-21.13 131.49-22.25 129.09-22.25L129.09-22.25Q126.69-22.25 125.47-21.13 124.24-20 124.24-17.95L124.24-17.95Q124.24-15.9 125.47-14.78 126.69-13.65 129.09-13.65L129.09-13.65ZM124.69 4.35L134.04 4.35Q135.34 4.35 136.19 3.7 137.04 3.05 137.04 2L137.04 2Q137.04 0.9 136.26 0.3 135.49-0.3 134.34-0.3L134.34-0.3 124.69-0.3Q123.59-0.3 122.81 0.35 122.04 1 122.04 2L122.04 2Q122.04 3.05 122.79 3.7 123.54 4.35 124.69 4.35L124.69 4.35ZM154.09 0.6Q151.04 0.6 148.49-1 145.94-2.6 145.94-6.8L145.94-6.8Q145.94-11.85 150.09-13.98 154.24-16.1 161.84-16.1L161.84-16.1 161.84-17.95Q161.84-19.7 161.06-20.65 160.29-21.6 158.14-21.6L158.14-21.6Q155.84-21.6 154.86-20.9 153.89-20.2 153.89-19.25L153.89-19.25 153.89-18.5 147.29-18.5Q147.24-18.8 147.24-19.6L147.24-19.6Q147.24-22.9 150.16-24.9 153.09-26.9 157.94-26.9L157.94-26.9Q163.34-26.9 166.01-24.7 168.69-22.5 168.69-18.35L168.69-18.35 168.69-6.75Q168.69-5.85 169.19-5.43 169.69-5 170.44-5L170.44-5 171.84-5 171.84-0.2Q170.24 0.6 167.89 0.6L167.89 0.6Q165.84 0.6 164.46-0.3 163.09-1.2 162.59-2.85L162.59-2.85 162.29-2.85Q160.84-1.15 158.96-0.28 157.09 0.6 154.09 0.6L154.09 0.6ZM156.24-4.8Q159.14-4.8 160.49-6.43 161.84-8.05 161.84-10.75L161.84-10.75 161.84-11.55Q152.89-11.55 152.89-7.55L152.89-7.55Q152.89-6.3 153.71-5.55 154.54-4.8 156.24-4.8L156.24-4.8ZM175.84 0L175.84-26.3 181.69-26.3 182.19-22.85 182.54-22.85Q185.74-26.9 190.74-26.9L190.74-26.9Q194.79-26.9 197.11-24.7 199.44-22.5 199.44-17.65L199.44-17.65 199.44 0 192.59 0 192.59-16.2Q192.59-18.65 191.44-19.75 190.29-20.85 188.04-20.85L188.04-20.85Q185.74-20.85 184.21-19.23 182.69-17.6 182.69-15.2L182.69-15.2 182.69 0 175.84 0ZM233.23 0.6Q229.28 0.6 226.01-0.63 222.73-1.85 220.78-4.25 218.83-6.65 218.83-10.05L218.83-10.05 218.88-11.15 226.23-11.15 226.18-10.35Q226.18-8.15 228.13-6.85 230.08-5.55 233.58-5.55L233.58-5.55Q237.28-5.55 238.93-6.53 240.58-7.5 240.58-9.15L240.58-9.15Q240.58-10.6 239.51-11.58 238.43-12.55 236.81-13.13 235.18-13.7 232.33-14.5L232.33-14.5Q228.28-15.65 225.78-16.7 223.28-17.75 221.48-19.83 219.68-21.9 219.68-25.3L219.68-25.3Q219.68-30 223.48-32.45 227.28-34.9 233.58-34.9L233.58-34.9Q239.53-34.9 243.31-32.38 247.08-29.85 247.08-24.8L247.08-24.8 247.08-24.2 239.88-24.2 239.88-24.65Q239.88-26.55 238.16-27.65 236.43-28.75 233.48-28.75L233.48-28.75Q230.33-28.75 228.66-27.9 226.98-27.05 226.98-25.55L226.98-25.55Q226.98-24.4 227.98-23.58 228.98-22.75 230.48-22.23 231.98-21.7 234.73-20.95L234.73-20.95Q238.83-19.85 241.46-18.78 244.08-17.7 245.98-15.6 247.88-13.5 247.88-10.1L247.88-10.1Q247.88-4.6 243.96-2 240.03 0.6 233.23 0.6L233.23 0.6ZM253.58-29.65L253.58-36.15 260.43-36.15 260.43-29.65 253.58-29.65ZM253.58 0L253.58-26.3 260.43-26.3 260.43 0 253.58 0ZM274.23 0L264.43-26.3 271.58-26.3 275.68-15Q276.38-13.1 277.88-7.1L277.88-7.1 278.13-7.1Q279.53-12.75 280.33-15L280.33-15 284.38-26.3 291.33-26.3 281.48 0 274.23 0ZM301.37 0.6Q298.32 0.6 295.77-1 293.22-2.6 293.22-6.8L293.22-6.8Q293.22-11.85 297.37-13.98 301.52-16.1 309.12-16.1L309.12-16.1 309.12-17.95Q309.12-19.7 308.35-20.65 307.57-21.6 305.42-21.6L305.42-21.6Q303.12-21.6 302.15-20.9 301.17-20.2 301.17-19.25L301.17-19.25 301.17-18.5 294.57-18.5Q294.52-18.8 294.52-19.6L294.52-19.6Q294.52-22.9 297.45-24.9 300.37-26.9 305.22-26.9L305.22-26.9Q310.62-26.9 313.3-24.7 315.97-22.5 315.97-18.35L315.97-18.35 315.97-6.75Q315.97-5.85 316.47-5.43 316.97-5 317.72-5L317.72-5 319.12-5 319.12-0.2Q317.52 0.6 315.17 0.6L315.17 0.6Q313.12 0.6 311.75-0.3 310.37-1.2 309.87-2.85L309.87-2.85 309.57-2.85Q308.12-1.15 306.25-0.28 304.37 0.6 301.37 0.6L301.37 0.6ZM303.52-4.8Q306.42-4.8 307.77-6.43 309.12-8.05 309.12-10.75L309.12-10.75 309.12-11.55Q300.17-11.55 300.17-7.55L300.17-7.55Q300.17-6.3 301-5.55 301.82-4.8 303.52-4.8L303.52-4.8ZM323.12 0L323.12-36.15 329.97-36.15 329.97-15.85 338.67-26.3 346.57-26.3 337.87-16.2 347.07 0 339.22 0 333.47-11.15 329.97-7.75 329.97 0 323.12 0ZM359.47 0.6Q355.42 0.6 353.09-1.6 350.77-3.8 350.77-8.65L350.77-8.65 350.77-26.3 357.62-26.3 357.62-10.1Q357.62-7.65 358.77-6.55 359.92-5.45 362.17-5.45L362.17-5.45Q364.47-5.45 365.99-7.08 367.52-8.7 367.52-11.1L367.52-11.1 367.52-26.3 374.37-26.3 374.37 0 368.52 0 368.02-3.45 367.67-3.45Q364.47 0.6 359.47 0.6L359.47 0.6ZM381.47 0L381.47-26.3 387.32-26.3 387.82-22.85 388.17-22.85Q391.07-26.9 395.67-26.9L395.67-26.9Q400.67-26.9 402.57-22.85L402.57-22.85 402.97-22.85Q405.97-26.9 410.77-26.9L410.77-26.9Q414.52-26.9 416.74-24.7 418.97-22.5 418.97-17.65L418.97-17.65 418.97 0 412.12 0 412.12-16.2Q412.12-20.85 408.27-20.85L408.27-20.85Q406.27-20.85 404.97-19.23 403.67-17.6 403.67-15.2L403.67-15.2 403.67 0 396.82 0 396.82-16.2Q396.82-20.85 392.97-20.85L392.97-20.85Q390.97-20.85 389.64-19.23 388.32-17.6 388.32-15.2L388.32-15.2 388.32 0 381.47 0ZM431.96 0.6Q428.91 0.6 426.36-1 423.81-2.6 423.81-6.8L423.81-6.8Q423.81-11.85 427.96-13.98 432.11-16.1 439.71-16.1L439.71-16.1 439.71-17.95Q439.71-19.7 438.94-20.65 438.16-21.6 436.01-21.6L436.01-21.6Q433.71-21.6 432.74-20.9 431.76-20.2 431.76-19.25L431.76-19.25 431.76-18.5 425.16-18.5Q425.11-18.8 425.11-19.6L425.11-19.6Q425.11-22.9 428.04-24.9 430.96-26.9 435.81-26.9L435.81-26.9Q441.21-26.9 443.89-24.7 446.56-22.5 446.56-18.35L446.56-18.35 446.56-6.75Q446.56-5.85 447.06-5.43 447.56-5 448.31-5L448.31-5 449.71-5 449.71-0.2Q448.11 0.6 445.76 0.6L445.76 0.6Q443.71 0.6 442.34-0.3 440.96-1.2 440.46-2.85L440.46-2.85 440.16-2.85Q438.71-1.15 436.84-0.28 434.96 0.6 431.96 0.6L431.96 0.6ZM434.11-4.8Q437.01-4.8 438.36-6.43 439.71-8.05 439.71-10.75L439.71-10.75 439.71-11.55Q430.76-11.55 430.76-7.55L430.76-7.55Q430.76-6.3 431.59-5.55 432.41-4.8 434.11-4.8L434.11-4.8ZM453.71 0L453.71-26.3 459.56-26.3 460.11-22.05 460.46-22.05Q461.31-24.3 462.66-25.6 464.01-26.9 466.21-26.9L466.21-26.9Q467.66-26.9 468.81-26.45L468.81-26.45 468.81-20.05 466.91-20.05Q463.56-20.05 462.06-18.23 460.56-16.4 460.56-12.7L460.56-12.7 460.56 0 453.71 0Z" opacity="1" transform="matrix(1,0,0,1,0,0)" fill="white" class="undefined-text-0" id="SvgjsPath1917"></path></svg></g></svg></g></svg></g></svg></g><g transform="matrix(1,0,0,1,70.3230469304402,22.96627093242087)"><svg viewBox="0 0 51.353906139119616 51.355072711719416" height="51.355072711719416" width="51.353906139119616"><g><svg xmlns="http://www.w3.org/2000/svg" xmlns:xlink="http://www.w3.org/1999/xlink" version="1.1" x="0" y="0" viewBox="6.5430006980896 7.459991455078125 87.99400329589844 87.99600219726562" enable-background="new 0 0 100 100" xml:space="preserve" height="51.355072711719416" width="51.353906139119616" class="icon-icon-0" data-fill-palette-color="accent" id="SvgjsSvg1916"></svg></g></svg></g><g></g></svg></g></svg></g></svg></g></svg></g><defs></defs></svg></g></mask><linearGradient x1="0.054" x2="0.941" y1="0.5" y2="0.5" id="adca4f5d-7ab9-4746-a271-dbf5ca7d0cbf"><stop stop-color="#eaa79c" offset="0"></stop><stop stop-color="#f2e8cb" offset="0.498"></stop><stop stop-color="#eaa79c" offset="1"></stop></linearGradient><mask id="04185945-3033-4983-9710-732ade492071"><g id="SvgjsG1929"><svg viewBox="0 0 320 360" height="360" width="320"><g><svg></svg></g><g><svg viewBox="0 0 320 360" height="360" width="320"><g></g><g transform="matrix(1,0,0,1,64,142.83932817792987)"><svg viewBox="0 0 192 74.32134364414028" height="74.32134364414028" width="192"><g><svg viewBox="0 0 192 74.32134364414028" height="74.32134364414028" width="192"><g><svg viewBox="0 0 192 74.32134364414028" height="74.32134364414028" width="192"><g><svg viewBox="0 0 192 18.579982891360135" height="18.579982891360135" width="192"><g id="SvgjsG1928"><svg viewBox="0 0 192 18.579982891360135" height="18.579982891360135" width="192" id="SvgjsSvg1927"><g><svg viewBox="0 0 192 18.579982891360135" height="18.579982891360135" width="192"><g transform="matrix(1,0,0,1,0,0)"><svg width="192" viewBox="1.25 -36.150001525878906 467.55999755859375 45.25" height="18.579982891360135" data-palette-color="url(#adca4f5d-7ab9-4746-a271-dbf5ca7d0cbf)"></svg></g></svg></g></svg></g></svg></g><g transform="matrix(1,0,0,1,70.3230469304402,22.96627093242087)"><svg viewBox="0 0 51.353906139119616 51.355072711719416" height="51.355072711719416" width="51.353906139119616"><g><svg xmlns="http://www.w3.org/2000/svg" xmlns:xlink="http://www.w3.org/1999/xlink" version="1.1" x="0" y="0" viewBox="6.5430006980896 7.459991455078125 87.99400329589844 87.99600219726562" enable-background="new 0 0 100 100" xml:space="preserve" height="51.355072711719416" width="51.353906139119616" class="icon-icon-0" data-fill-palette-color="accent" id="SvgjsSvg1926"><path d="M91.019 40.902c-1.945 0-3.521-1.576-3.521-3.52 0-0.555 0.14-1.073 0.369-1.54-3.819-9.117-10.873-16.544-19.729-20.836v11.815l-7.038 7.04 2.348 3.521h15.251v8.799h11.908c-0.072-0.502-0.117-1.011-0.2-1.509l3.456-0.645c0.412 2.422 0.674 4.894 0.674 7.433 0 24.299-19.697 43.996-43.995 43.996-19.457 0-35.921-12.646-41.727-30.156-1.325-0.504-2.271-1.777-2.271-3.279 0-1.944 1.576-3.521 3.52-3.521 1.943 0 3.52 1.576 3.52 3.521 0 1.08-0.496 2.031-1.261 2.678 0.78 2.253 1.774 4.406 2.92 6.459l10.659-9.137v-12.32h10.56v-7.041h-7.04v-7.039H13.284c-2.071 4.864-3.221 10.217-3.221 15.839 0 0.949 0.078 1.879 0.142 2.812l-3.487 0.649c-0.09-1.146-0.175-2.294-0.175-3.464 0-24.298 19.698-43.997 43.998-43.997 18.04 0 33.493 10.88 40.282 26.417 0.065-0.003 0.127-0.019 0.195-0.019 1.943 0 3.518 1.576 3.518 3.521C94.536 39.326 92.962 40.902 91.019 40.902zM75.179 40.902H64.618v10.559h10.561V40.902zM91.019 51.461c0-0.594-0.058-1.173-0.085-1.759H78.698v5.279h-7.041l-0.018 9.419-2.995 3.325L80.72 78.37C87.105 71.215 91.019 61.807 91.019 51.461zM17.288 74.433c7.295 10.562 19.443 17.507 33.253 17.507 10.711 0 20.424-4.19 27.663-10.984L66.394 70.397 62.86 74.34h-8.799v3.521H36.462v-5.28l-7.92-7.92-0.88 0.881L17.288 74.433zM50.541 74.34V63.781h-10.56V74.34H50.541zM29.422 53.22v6.802l7.04 7.039v-6.8h17.599v10.56H61.1l7.038-7.039V54.98H61.1V40.902l-3.519-5.279H47.021v7.039h-7.04V53.22H29.422zM32.941 35.623v3.519h10.56v-10.56H39.98h-7.04L32.941 35.623 32.941 35.623zM36.462 13.551c-9.193 3.417-16.828 10.037-21.474 18.552h14.434v-7.041l0 0h7.04V13.551zM64.618 13.529c-4.384-1.633-9.12-2.544-14.077-2.544-3.661 0-7.189 0.53-10.561 1.438v12.639h7.04v7.041h10.561l7.037-7.041V13.529z" fill="white"></path></svg></g></svg></g><g></g></svg></g></svg></g></svg></g></svg></g><defs></defs><mask><g id="SvgjsG1925"><svg viewBox="0 0 320 360" height="360" width="320"><g><svg></svg></g><g><svg viewBox="0 0 320 360" height="360" width="320"><g></g><g transform="matrix(1,0,0,1,64,142.83932817792987)"><svg viewBox="0 0 192 74.32134364414028" height="74.32134364414028" width="192"><g><svg viewBox="0 0 192 74.32134364414028" height="74.32134364414028" width="192"><g><svg viewBox="0 0 192 74.32134364414028" height="74.32134364414028" width="192"><g><svg viewBox="0 0 192 18.579982891360135" height="18.579982891360135" width="192"><g id="SvgjsG1924"><svg viewBox="0 0 192 18.579982891360135" height="18.579982891360135" width="192" id="SvgjsSvg1923"><g><svg viewBox="0 0 192 18.579982891360135" height="18.579982891360135" width="192"><g transform="matrix(1,0,0,1,0,0)"><svg width="192" viewBox="1.25 -36.150001525878906 467.55999755859375 45.25" height="18.579982891360135" data-palette-color="url(#adca4f5d-7ab9-4746-a271-dbf5ca7d0cbf)"></svg></g></svg></g></svg></g></svg></g><g transform="matrix(1,0,0,1,70.3230469304402,22.96627093242087)"><svg viewBox="0 0 51.353906139119616 51.355072711719416" height="51.355072711719416" width="51.353906139119616"><g><svg xmlns="http://www.w3.org/2000/svg" xmlns:xlink="http://www.w3.org/1999/xlink" version="1.1" x="0" y="0" viewBox="6.5430006980896 7.459991455078125 87.99400329589844 87.99600219726562" enable-background="new 0 0 100 100" xml:space="preserve" height="51.355072711719416" width="51.353906139119616" class="icon-icon-0" data-fill-palette-color="accent" id="SvgjsSvg1921"></svg></g></svg></g><g></g></svg></g></svg></g></svg></g></svg></g><defs></defs></svg></g></mask></svg></g></mask><linearGradient x1="0" x2="1" y1="0.548" y2="0.55" id="cdaba0b5-1440-45c8-8861-07a384464494"><stop stop-color="#ff6cab" offset="0"></stop><stop stop-color="#7366ff" offset="1"></stop></linearGradient><mask id="cd8360e4-ee9d-467d-ba69-e5d826e11e16"><g id="SvgjsG1946"><svg viewBox="0 0 320 360" height="360" width="320"><g><svg></svg></g><g><svg viewBox="0 0 320 360" height="360" width="320"><g><path xmlns="http://www.w3.org/2000/svg" d="M307.925 179.999l6.575-11.387c11.322-19.607 4.604-44.679-15.003-56.001l-11.387-6.575v-13.151c0-22.639-18.354-40.994-40.994-40.994h-13.151l-6.575-11.387c-11.322-19.607-36.393-26.325-56.001-15.003l-11.39 6.572-11.387-6.576c-19.607-11.318-44.679-4.6-56.001 15.007l-6.575 11.387h-13.151c-22.639 0-40.994 18.354-40.994 40.994v13.151l-11.387 6.575c-19.607 11.322-26.325 36.393-15.003 56.001l6.572 11.387-6.576 11.387c-11.318 19.607-4.6 44.679 15.007 56l11.387 6.576v13.15c0 22.639 18.354 40.994 40.994 40.994h13.151l6.575 11.387c11.322 19.607 36.393 26.325 56.001 15.003l11.387-6.571 11.387 6.575c19.607 11.322 44.679 4.604 56-15.003l6.576-11.387h13.15c22.639 0 40.994-18.354 40.994-40.994v-13.151l11.387-6.575c19.607-11.322 26.325-36.393 15.003-56.001zM297.702 115.716c8.655 4.996 14.842 13.062 17.428 22.713 2.586 9.65 1.261 19.734-3.735 28.384l-5.538 9.596-17.747-30.74v-35.494zM251.155 271.155l-57.791 33.365h-66.731l-57.791-33.365-33.365-57.791v-66.731l33.365-57.791 57.791-33.365h66.731l57.791 33.365 33.365 57.791v66.731zM284.517 220.539v31.351l-27.151 15.676zM247.566 277.366l-15.676 27.151h-31.351zM187.15 308.106l-27.151 15.676-27.151-15.676zM119.459 304.517h-31.352l-15.676-27.151zM62.632 267.566l-27.151-15.676v-31.351zM31.891 207.15l-15.675-27.151 15.675-27.151zM35.481 139.459v-31.352l27.151-15.676zM72.431 82.632l15.676-27.151h31.352zM132.848 51.891l27.151-15.675 27.151 15.675zM200.539 55.481h31.351l15.676 27.151zM257.366 92.431l27.151 15.676v31.352zM288.106 152.848l15.676 27.151-15.676 27.151zM247.112 55.481c9.992 0 19.384 3.889 26.452 10.956 7.063 7.063 10.956 16.46 10.957 26.452v11.079l-30.741-17.747-17.747-30.74zM173.18 28.606c8.655-4.996 18.735-6.322 28.385-3.735 9.65 2.586 17.716 8.777 22.712 17.428l5.538 9.596h-35.494l-30.741-17.747zM95.716 42.295c4.996-8.655 13.062-14.842 22.713-17.428 9.65-2.586 19.734-1.261 28.384 3.736l9.596 5.537-30.74 17.747h-35.494zM35.481 92.885c0-9.992 3.889-19.384 10.956-26.452 7.063-7.063 16.46-10.956 26.452-10.956h11.079l-17.747 30.74-30.74 17.747zM8.606 166.817c-4.996-8.655-6.322-18.735-3.735-28.385 2.586-9.65 8.777-17.716 17.428-22.712l9.596-5.538v35.495l-17.747 30.74zM22.295 244.281c-8.655-4.996-14.842-13.062-17.428-22.712-2.586-9.65-1.261-19.734 3.736-28.385l5.537-9.596 17.747 30.74v35.495zM72.885 304.517c-9.992 0-19.384-3.889-26.452-10.957-7.063-7.063-10.956-16.46-10.956-26.451v-11.08l30.74 17.747 17.747 30.741zM146.817 331.391c-8.655 4.996-18.735 6.322-28.385 3.735-9.65-2.586-17.716-8.777-22.712-17.428l-5.538-9.596h35.495l30.74 17.747zM224.281 317.702c-4.996 8.655-13.062 14.842-22.712 17.428-9.65 2.586-19.734 1.261-28.385-3.735l-9.596-5.538 30.74-17.747h35.495zM284.517 267.112c0 9.992-3.889 19.384-10.957 26.452-7.063 7.063-16.46 10.956-26.451 10.957h-11.08l17.747-30.741 30.741-17.747zM315.13 221.565c-2.586 9.65-8.777 17.716-17.428 22.712l-9.596 5.538v-35.494l17.747-30.741 5.538 9.596c4.996 8.658 6.326 18.739 3.739 28.389z" fill="white" fill-rule="nonzero" stroke="none" stroke-width="1" stroke-linecap="butt" stroke-linejoin="miter" stroke-miterlimit="10" stroke-dasharray="" stroke-dashoffset="0" font-family="none" font-weight="none" font-size="none" text-anchor="none" style="mix-blend-mode: normal"></path></g><g transform="matrix(1,0,0,1,64,142.83932817792987)"><svg viewBox="0 0 192 74.32134364414028" height="74.32134364414028" width="192"><g><svg viewBox="0 0 192 74.32134364414028" height="74.32134364414028" width="192"><g><svg viewBox="0 0 192 74.32134364414028" height="74.32134364414028" width="192"><g><svg viewBox="0 0 192 18.579982891360135" height="18.579982891360135" width="192"><g id="SvgjsG1945"><svg viewBox="0 0 192 18.579982891360135" height="18.579982891360135" width="192" id="SvgjsSvg1944"><g><svg viewBox="0 0 192 18.579982891360135" height="18.579982891360135" width="192"><g transform="matrix(1,0,0,1,0,0)"><svg width="192" viewBox="1.25 -36.150001525878906 467.55999755859375 45.25" height="18.579982891360135" data-palette-color="url(#adca4f5d-7ab9-4746-a271-dbf5ca7d0cbf)"></svg></g></svg></g></svg></g></svg></g><g transform="matrix(1,0,0,1,70.3230469304402,22.96627093242087)"><svg viewBox="0 0 51.353906139119616 51.355072711719416" height="51.355072711719416" width="51.353906139119616"><g><svg xmlns="http://www.w3.org/2000/svg" xmlns:xlink="http://www.w3.org/1999/xlink" version="1.1" x="0" y="0" viewBox="6.5430006980896 7.459991455078125 87.99400329589844 87.99600219726562" enable-background="new 0 0 100 100" xml:space="preserve" height="51.355072711719416" width="51.353906139119616" class="icon-icon-0" data-fill-palette-color="accent" id="SvgjsSvg1943"></svg></g></svg></g><g></g></svg></g></svg></g></svg></g></svg></g><defs></defs><mask><g id="SvgjsG1942"><svg viewBox="0 0 320 360" height="360" width="320"><g><svg></svg></g><g><svg viewBox="0 0 320 360" height="360" width="320"><g></g><g transform="matrix(1,0,0,1,64,142.83932817792987)"><svg viewBox="0 0 192 74.32134364414028" height="74.32134364414028" width="192"><g><svg viewBox="0 0 192 74.32134364414028" height="74.32134364414028" width="192"><g><svg viewBox="0 0 192 74.32134364414028" height="74.32134364414028" width="192"><g><svg viewBox="0 0 192 18.579982891360135" height="18.579982891360135" width="192"><g id="SvgjsG1941"><svg viewBox="0 0 192 18.579982891360135" height="18.579982891360135" width="192" id="SvgjsSvg1940"><g><svg viewBox="0 0 192 18.579982891360135" height="18.579982891360135" width="192"><g transform="matrix(1,0,0,1,0,0)"><svg width="192" viewBox="1.25 -36.150001525878906 467.55999755859375 45.25" height="18.579982891360135" data-palette-color="url(#adca4f5d-7ab9-4746-a271-dbf5ca7d0cbf)"></svg></g></svg></g></svg></g></svg></g><g transform="matrix(1,0,0,1,70.3230469304402,22.96627093242087)"><svg viewBox="0 0 51.353906139119616 51.355072711719416" height="51.355072711719416" width="51.353906139119616"><g><svg xmlns="http://www.w3.org/2000/svg" xmlns:xlink="http://www.w3.org/1999/xlink" version="1.1" x="0" y="0" viewBox="6.5430006980896 7.459991455078125 87.99400329589844 87.99600219726562" enable-background="new 0 0 100 100" xml:space="preserve" height="51.355072711719416" width="51.353906139119616" class="icon-icon-0" data-fill-palette-color="accent" id="SvgjsSvg1938"></svg></g></svg></g><g></g></svg></g></svg></g></svg></g></svg></g><defs></defs></svg></g></mask><mask><g id="SvgjsG1937"><svg viewBox="0 0 320 360" height="360" width="320"><g><svg></svg></g><g><svg viewBox="0 0 320 360" height="360" width="320"><g></g><g transform="matrix(1,0,0,1,64,142.83932817792987)"><svg viewBox="0 0 192 74.32134364414028" height="74.32134364414028" width="192"><g><svg viewBox="0 0 192 74.32134364414028" height="74.32134364414028" width="192"><g><svg viewBox="0 0 192 74.32134364414028" height="74.32134364414028" width="192"><g><svg viewBox="0 0 192 18.579982891360135" height="18.579982891360135" width="192"><g id="SvgjsG1936"><svg viewBox="0 0 192 18.579982891360135" height="18.579982891360135" width="192" id="SvgjsSvg1935"><g><svg viewBox="0 0 192 18.579982891360135" height="18.579982891360135" width="192"><g transform="matrix(1,0,0,1,0,0)"><svg width="192" viewBox="1.25 -36.150001525878906 467.55999755859375 45.25" height="18.579982891360135" data-palette-color="url(#adca4f5d-7ab9-4746-a271-dbf5ca7d0cbf)"></svg></g></svg></g></svg></g></svg></g><g transform="matrix(1,0,0,1,70.3230469304402,22.96627093242087)"><svg viewBox="0 0 51.353906139119616 51.355072711719416" height="51.355072711719416" width="51.353906139119616"><g><svg xmlns="http://www.w3.org/2000/svg" xmlns:xlink="http://www.w3.org/1999/xlink" version="1.1" x="0" y="0" viewBox="6.5430006980896 7.459991455078125 87.99400329589844 87.99600219726562" enable-background="new 0 0 100 100" xml:space="preserve" height="51.355072711719416" width="51.353906139119616" class="icon-icon-0" data-fill-palette-color="accent" id="SvgjsSvg1934"></svg></g></svg></g><g></g></svg></g></svg></g></svg></g></svg></g><defs></defs><mask><g id="SvgjsG1933"><svg viewBox="0 0 320 360" height="360" width="320"><g><svg></svg></g><g><svg viewBox="0 0 320 360" height="360" width="320"><g></g><g transform="matrix(1,0,0,1,64,142.83932817792987)"><svg viewBox="0 0 192 74.32134364414028" height="74.32134364414028" width="192"><g><svg viewBox="0 0 192 74.32134364414028" height="74.32134364414028" width="192"><g><svg viewBox="0 0 192 74.32134364414028" height="74.32134364414028" width="192"><g><svg viewBox="0 0 192 18.579982891360135" height="18.579982891360135" width="192"><g id="SvgjsG1932"><svg viewBox="0 0 192 18.579982891360135" height="18.579982891360135" width="192" id="SvgjsSvg1931"><g><svg viewBox="0 0 192 18.579982891360135" height="18.579982891360135" width="192"><g transform="matrix(1,0,0,1,0,0)"><svg width="192" viewBox="1.25 -36.150001525878906 467.55999755859375 45.25" height="18.579982891360135" data-palette-color="url(#adca4f5d-7ab9-4746-a271-dbf5ca7d0cbf)"></svg></g></svg></g></svg></g></svg></g><g transform="matrix(1,0,0,1,70.3230469304402,22.96627093242087)"><svg viewBox="0 0 51.353906139119616 51.355072711719416" height="51.355072711719416" width="51.353906139119616"><g><svg xmlns="http://www.w3.org/2000/svg" xmlns:xlink="http://www.w3.org/1999/xlink" version="1.1" x="0" y="0" viewBox="6.5430006980896 7.459991455078125 87.99400329589844 87.99600219726562" enable-background="new 0 0 100 100" xml:space="preserve" height="51.355072711719416" width="51.353906139119616" class="icon-icon-0" data-fill-palette-color="accent" id="SvgjsSvg1930"></svg></g></svg></g><g></g></svg></g></svg></g></svg></g></svg></g><defs></defs></svg></g></mask></svg></g></mask></svg></g></mask><linearGradient x1="0" x2="1" y1="0.548" y2="0.55" id="3448ff22-bbbe-4acd-9b81-a5c1ced37da0"><stop stop-color="#ff6cab" offset="0"></stop><stop stop-color="#7366ff" offset="1"></stop></linearGradient></svg><rect width="320" height="360" fill="none" stroke="none" visibility="hidden"></rect></g></svg></g></svg>